<svg width="24" height="24" viewBox="0 0 24 24" fill="none" xmlns="http://www.w3.org/2000/svg">
<path d="M15 14.5H16.5C16.75 14.5 17 14.25 17 14V8.75C17 8.5 16.75 8.25 16.5 8.25H15C14.75 8.25 14.5 8.5 14.5 8.75V14C14.5 14.25 14.75 14.5 15 14.5V14.5ZM18.75 14.5H20.25C20.5 14.5 20.75 14.25 20.75 14V5C20.75 4.75 20.5 4.5 20.25 4.5H18.75C18.5 4.5 18.25 4.75 18.25 5V14C18.25 14.25 18.5 14.5 18.75 14.5ZM7.5 14.5H9C9.25 14.5 9.5 14.25 9.5 14V11.25C9.5 11 9.25 10.75 9 10.75H7.5C7.25 10.75 7 11 7 11.25V14C7 14.25 7.25 14.5 7.5 14.5ZM11.25 14.5H12.75C13 14.5 13.25 14.25 13.25 14V6.25C13.25 6 13 5.75 12.75 5.75H11.25C11 5.75 10.75 6 10.75 6.25V14C10.75 14.25 11 14.5 11.25 14.5V14.5ZM21.375 17H4.5V5.125C4.5 4.77969 4.22031 4.5 3.875 4.5H2.625C2.27969 4.5 2 4.77969 2 5.125V18.25C2 18.9402 2.55977 19.5 3.25 19.5H21.375C21.7203 19.5 22 19.2203 22 18.875V17.625C22 17.2797 21.7203 17 21.375 17Z" fill="#A5B1B8"/>
</svg>
