<svg width="224" height="80" viewBox="0 0 224 80" fill="none" xmlns="http://www.w3.org/2000/svg">
<path fill-rule="evenodd" clip-rule="evenodd" d="M61.3699 56.1949C58.2403 69.2869 46.66 80 31.0042 80C13.4604 80 0 66.2759 0 49.1287C0 32.1817 13.2554 18.4615 30.5785 18.4615C45.9269 18.4615 58.3428 28.5426 61.2674 42.6789H43.7314C41.8553 38.7257 38.4143 34.5685 31.2092 34.5685C22.9634 34.1524 17.4295 40.9084 17.4295 49.2308C17.4295 57.6513 22.9634 63.8813 31.2092 63.8813C38.4143 63.8813 41.8553 59.724 43.7314 56.1949H61.3699Z" fill="white"/>
<path fill-rule="evenodd" clip-rule="evenodd" d="M91.7545 20.2554H100.237V33.3501H91.7545V77.9487H74.1562V33.3501H65.4612V20.2554H74.1562V1.02563H91.7545V20.2554Z" fill="white"/>
<path fill-rule="evenodd" clip-rule="evenodd" d="M107.397 20.4262H123.516V26.5393H123.727C125.174 23.7449 128.166 18.4615 138.082 18.4615V35.7676C130.124 35.9711 124.546 37.6344 124.546 46.3344V77.9487H107.397V20.4262Z" fill="white"/>
<path fill-rule="evenodd" clip-rule="evenodd" d="M147.288 77.9487H164.676V1.02563H147.288V77.9487Z" fill="white"/>
<path fill-rule="evenodd" clip-rule="evenodd" d="M211.749 36.9231L199.454 24.5878L187.159 36.9231L174.904 24.6272L199.454 0L224 24.6272L211.749 36.9231Z" fill="#EA3434"/>
</svg>
