<svg width="32" height="32" viewBox="0 0 32 32" fill="none" xmlns="http://www.w3.org/2000/svg">
<mask id="path-1-inside-1_73:498" fill="white">
<path fill-rule="evenodd" clip-rule="evenodd" d="M3 11.7235C3 7.94774 5.94315 5 9.7 5C11.8321 5 13.8949 6.00044 15.2377 7.58211L15.2863 7.63941C13.2577 9.69046 11.6555 11.3273 11.3249 11.7111C9.97216 13.2822 12.0013 15.5407 13.5888 14.0446C13.7117 13.9415 14.1252 13.5332 14.5079 13.1506L14.5537 13.1048C14.8955 12.7628 15.202 12.4524 15.2389 12.415L15.2427 12.4112C15.8775 11.7727 16.9017 11.7653 17.5449 12.3903L17.5489 12.3941L17.5536 12.399C18.1749 13.0473 18.1726 14.0836 17.5444 14.7289L15.0299 17.3115C14.3949 17.9636 14.3988 19.0177 15.0392 19.665L15.0443 19.6702C15.6851 20.318 16.7231 20.3178 17.3636 19.6707L21.4076 15.5853C22.0409 14.9455 23.0663 14.9358 23.7113 15.5586L23.7275 15.5745L23.7434 15.5908C24.3657 16.236 24.3677 17.2727 23.7418 17.9196C23.7418 17.9196 18.7069 23.1166 18.5037 23.3793C17.7233 24.3886 18.4001 25.5081 18.6648 25.7032C18.727 25.7491 18.7889 25.7899 18.8505 25.8259C18.3672 26.2683 17.8694 26.722 17.3577 27.1884L17.3574 27.1887C16.589 27.8845 15.4175 27.8822 14.6519 27.1831L14.6519 27.1831L14.6443 27.1762L14.6429 27.1749C11.0178 23.8777 8.0899 21.2123 6.05624 18.7184C4.03416 16.2387 3 14.05 3 11.7235ZM9.7 3C4.83285 3 1 6.84891 1 11.7235C1 14.705 2.34584 17.333 4.50626 19.9823C6.64128 22.6006 9.67295 25.358 13.2281 28.5916L13.2957 28.6531L13.2971 28.6544L13.3032 28.66L13.3033 28.66C14.8307 30.0547 17.1682 30.0591 18.7009 28.6702L18.7011 28.6701L18.7016 28.6696L18.7036 28.6677L18.8085 28.5722C22.3479 25.346 25.3663 22.5948 27.494 19.9838C29.6542 17.3329 31 14.705 31 11.7235C31 6.84891 27.1672 3 22.3 3C19.9406 3 17.6751 3.94506 16 5.49312C14.3249 3.94506 12.0594 3 9.7 3ZM19.3871 9.64514C19.3871 10.6012 20.1622 11.3763 21.1183 11.3763C22.0744 11.3763 22.8495 10.6012 22.8495 9.64514C22.8495 8.68906 22.0744 7.91397 21.1183 7.91397C20.1622 7.91397 19.3871 8.68906 19.3871 9.64514Z"/>
</mask>
<path fill-rule="evenodd" clip-rule="evenodd" d="M3 11.7235C3 7.94774 5.94315 5 9.7 5C11.8321 5 13.8949 6.00044 15.2377 7.58211L15.2863 7.63941C13.2577 9.69046 11.6555 11.3273 11.3249 11.7111C9.97216 13.2822 12.0013 15.5407 13.5888 14.0446C13.7117 13.9415 14.1252 13.5332 14.5079 13.1506L14.5537 13.1048C14.8955 12.7628 15.202 12.4524 15.2389 12.415L15.2427 12.4112C15.8775 11.7727 16.9017 11.7653 17.5449 12.3903L17.5489 12.3941L17.5536 12.399C18.1749 13.0473 18.1726 14.0836 17.5444 14.7289L15.0299 17.3115C14.3949 17.9636 14.3988 19.0177 15.0392 19.665L15.0443 19.6702C15.6851 20.318 16.7231 20.3178 17.3636 19.6707L21.4076 15.5853C22.0409 14.9455 23.0663 14.9358 23.7113 15.5586L23.7275 15.5745L23.7434 15.5908C24.3657 16.236 24.3677 17.2727 23.7418 17.9196C23.7418 17.9196 18.7069 23.1166 18.5037 23.3793C17.7233 24.3886 18.4001 25.5081 18.6648 25.7032C18.727 25.7491 18.7889 25.7899 18.8505 25.8259C18.3672 26.2683 17.8694 26.722 17.3577 27.1884L17.3574 27.1887C16.589 27.8845 15.4175 27.8822 14.6519 27.1831L14.6519 27.1831L14.6443 27.1762L14.6429 27.1749C11.0178 23.8777 8.0899 21.2123 6.05624 18.7184C4.03416 16.2387 3 14.05 3 11.7235ZM9.7 3C4.83285 3 1 6.84891 1 11.7235C1 14.705 2.34584 17.333 4.50626 19.9823C6.64128 22.6006 9.67295 25.358 13.2281 28.5916L13.2957 28.6531L13.2971 28.6544L13.3032 28.66L13.3033 28.66C14.8307 30.0547 17.1682 30.0591 18.7009 28.6702L18.7011 28.6701L18.7016 28.6696L18.7036 28.6677L18.8085 28.5722C22.3479 25.346 25.3663 22.5948 27.494 19.9838C29.6542 17.3329 31 14.705 31 11.7235C31 6.84891 27.1672 3 22.3 3C19.9406 3 17.6751 3.94506 16 5.49312C14.3249 3.94506 12.0594 3 9.7 3ZM19.3871 9.64514C19.3871 10.6012 20.1622 11.3763 21.1183 11.3763C22.0744 11.3763 22.8495 10.6012 22.8495 9.64514C22.8495 8.68906 22.0744 7.91397 21.1183 7.91397C20.1622 7.91397 19.3871 8.68906 19.3871 9.64514Z" fill="white"/>
<path d="M15.2377 7.58211L14.4754 8.22931L14.4754 8.22931L15.2377 7.58211ZM15.2863 7.63941L15.9973 8.34262L16.6419 7.69094L16.0486 6.99221L15.2863 7.63941ZM11.3249 11.7111L12.0827 12.3636L12.0827 12.3636L11.3249 11.7111ZM13.5888 14.0446L12.9463 13.2783L12.9241 13.2969L12.903 13.3168L13.5888 14.0446ZM14.5079 13.1506L15.2149 13.8578L15.215 13.8577L14.5079 13.1506ZM14.5537 13.1048L15.2608 13.8119L15.261 13.8117L14.5537 13.1048ZM15.2389 12.415L14.5273 11.7124L14.5272 11.7125L15.2389 12.415ZM15.2427 12.4112L14.5335 11.7061L14.531 11.7087L15.2427 12.4112ZM17.5449 12.3903L18.2433 11.6745L18.2418 11.6731L17.5449 12.3903ZM17.5489 12.3941L18.2674 11.6986L18.2575 11.6884L18.2473 11.6784L17.5489 12.3941ZM17.5536 12.399L18.2756 11.7071L18.2721 11.7035L17.5536 12.399ZM17.5444 14.7289L18.2609 15.4265L17.5444 14.7289ZM15.0299 17.3115L15.7464 18.0091L15.0299 17.3115ZM15.0392 19.665L14.3283 20.3683L14.3283 20.3683L15.0392 19.665ZM15.0443 19.6702L15.7552 18.9669L15.7552 18.9669L15.0443 19.6702ZM17.3636 19.6707L18.0743 20.3742L17.3636 19.6707ZM21.4076 15.5853L20.6969 14.8818L20.6969 14.8818L21.4076 15.5853ZM23.7113 15.5586L24.4124 14.8455L24.4059 14.8392L23.7113 15.5586ZM23.7275 15.5745L24.4409 14.8738L24.4348 14.8676L24.4286 14.8615L23.7275 15.5745ZM23.7434 15.5908L24.4632 14.8966L24.4569 14.8901L23.7434 15.5908ZM23.7418 17.9196L24.46 18.6154L24.4604 18.615L23.7418 17.9196ZM18.5037 23.3793L19.2948 23.991L19.2949 23.9909L18.5037 23.3793ZM18.6648 25.7032L18.0714 26.5081L18.0714 26.5081L18.6648 25.7032ZM18.8505 25.8259L19.5257 26.5636L20.5263 25.6477L19.3555 24.9627L18.8505 25.8259ZM17.3577 27.1884L16.684 26.4494L16.6834 26.4499L17.3577 27.1884ZM17.3574 27.1887L18.0287 27.9299L18.0317 27.9272L17.3574 27.1887ZM14.6519 27.1831L15.3262 26.4446L15.3162 26.4357L14.6519 27.1831ZM14.6519 27.1831L13.9773 27.9214L13.9875 27.9305L14.6519 27.1831ZM14.6443 27.1762L15.3188 26.4379L15.3169 26.4362L14.6443 27.1762ZM14.6429 27.1749L13.97 27.9146L13.9703 27.9149L14.6429 27.1749ZM6.05624 18.7184L6.83124 18.0864L6.05624 18.7184ZM4.50626 19.9823L5.28125 19.3504L4.50626 19.9823ZM13.2281 28.5916L13.9009 27.8518L13.9009 27.8518L13.2281 28.5916ZM13.2957 28.6531L13.9687 27.9135L13.9685 27.9133L13.2957 28.6531ZM13.2971 28.6544L13.9717 27.9162L13.9702 27.9148L13.2971 28.6544ZM13.3032 28.66L12.6286 29.3982L12.6389 29.4074L13.3032 28.66ZM13.3033 28.66L13.9776 27.9215L13.9676 27.9126L13.3033 28.66ZM18.7009 28.6702L19.3724 29.4112L19.3736 29.4102L18.7009 28.6702ZM18.7011 28.6701L18.0303 27.9284L18.0284 27.9301L18.7011 28.6701ZM18.7016 28.6696L19.3724 29.4113L19.3745 29.4093L18.7016 28.6696ZM18.7036 28.6677L19.3765 29.4075L19.3773 29.4068L18.7036 28.6677ZM18.8085 28.5722L18.1348 27.8331L18.1348 27.8331L18.8085 28.5722ZM27.494 19.9838L26.7188 19.3521L27.494 19.9838ZM16 5.49312L15.3213 6.22754L16 6.85475L16.6787 6.22754L16 5.49312ZM9.7 4C5.38813 4 2 7.39819 2 11.7235H4C4 8.49728 6.49817 6 9.7 6V4ZM16 6.93492C14.4739 5.13737 12.1359 4 9.7 4V6C11.5283 6 13.3158 6.86351 14.4754 8.22931L16 6.93492ZM16.0486 6.99221L16 6.93491L14.4754 8.22931L14.524 8.2866L16.0486 6.99221ZM12.0827 12.3636C12.3839 12.0139 13.9493 10.4132 15.9973 8.34262L14.5753 6.93619C12.566 8.96773 10.927 10.6407 10.5671 11.0587L12.0827 12.3636ZM12.903 13.3168C12.686 13.5213 12.527 13.5399 12.441 13.5342C12.3353 13.5273 12.2036 13.4723 12.0848 13.3451C11.9657 13.2177 11.8928 13.0516 11.8829 12.8884C11.874 12.7412 11.913 12.5608 12.0827 12.3636L10.5672 11.0586C9.51186 12.2842 9.78863 13.8177 10.6238 14.711C11.0415 15.1578 11.6303 15.4851 12.3093 15.5299C13.0079 15.576 13.6979 15.3159 14.2747 14.7723L12.903 13.3168ZM13.8009 12.4433C13.6106 12.6336 13.4146 12.8283 13.252 12.9872C13.1705 13.0669 13.0995 13.1355 13.0427 13.1892C13.0144 13.2161 12.9912 13.2377 12.9731 13.2543C12.9535 13.2722 12.9457 13.2788 12.9463 13.2783L14.2314 14.8108C14.3974 14.6716 14.8535 14.2191 15.2149 13.8578L13.8009 12.4433ZM13.8465 12.3978L13.8008 12.4435L15.215 13.8577L15.2608 13.8119L13.8465 12.3978ZM14.5272 11.7125C14.4908 11.7494 14.186 12.0581 13.8464 12.3979L15.261 13.8117C15.6049 13.4676 15.9131 13.1555 15.9507 13.1174L14.5272 11.7125ZM14.531 11.7087L14.5273 11.7124L15.9506 13.1175L15.9544 13.1137L14.531 11.7087ZM18.2418 11.6731C17.2058 10.6665 15.5548 10.679 14.5335 11.7061L15.9518 13.1162C16.2003 12.8663 16.5975 12.8641 16.848 13.1075L18.2418 11.6731ZM18.2473 11.6784L18.2433 11.6745L16.8465 13.106L16.8505 13.1099L18.2473 11.6784ZM18.2721 11.7035L18.2674 11.6986L16.8303 13.0896L16.8351 13.0945L18.2721 11.7035ZM18.2609 15.4265C19.2657 14.3945 19.269 12.7437 18.2756 11.7071L16.8316 13.0909C17.0808 13.3509 17.0796 13.7728 16.8279 14.0313L18.2609 15.4265ZM15.7464 18.0091L18.2609 15.4265L16.8279 14.0313L14.3134 16.6139L15.7464 18.0091ZM15.7501 18.9618C15.4931 18.702 15.4914 18.2709 15.7464 18.0091L14.3134 16.6139C13.2984 17.6564 13.3044 19.3334 14.3283 20.3683L15.7501 18.9618ZM15.7552 18.9669L15.7501 18.9617L14.3283 20.3683L14.3334 20.3735L15.7552 18.9669ZM16.6529 18.9672C16.4037 19.219 16.0047 19.2191 15.7552 18.9669L14.3334 20.3735C15.3656 21.4169 17.0424 21.4166 18.0743 20.3742L16.6529 18.9672ZM20.6969 14.8818L16.6529 18.9672L18.0743 20.3742L22.1183 16.2888L20.6969 14.8818ZM24.4059 14.8392C23.3676 13.8367 21.7159 13.8525 20.6969 14.8818L22.1183 16.2888C22.366 16.0386 22.765 16.035 23.0167 16.278L24.4059 14.8392ZM24.4286 14.8615L24.4124 14.8456L23.0102 16.2717L23.0264 16.2876L24.4286 14.8615ZM24.4569 14.8901L24.4409 14.8738L23.014 16.2753L23.03 16.2915L24.4569 14.8901ZM24.4604 18.615C25.4623 17.5797 25.4583 15.9284 24.4632 14.8966L23.0236 16.285C23.273 16.5436 23.2731 16.9658 23.0231 17.2242L24.4604 18.615ZM19.2949 23.9909C19.2825 24.0069 19.3373 23.9441 19.516 23.7539C19.6703 23.5897 19.8814 23.3675 20.1311 23.106C20.63 22.5836 21.2771 21.9107 21.9189 21.2449C22.5604 20.5794 23.1957 19.922 23.6707 19.4309C23.9081 19.1854 24.1055 18.9815 24.2435 18.8389C24.3125 18.7677 24.3666 18.7118 24.4035 18.6737C24.4219 18.6547 24.4361 18.6401 24.4456 18.6302C24.4503 18.6253 24.4539 18.6216 24.4563 18.6191C24.4576 18.6179 24.4585 18.6169 24.4591 18.6163C24.4594 18.616 24.4596 18.6158 24.4597 18.6156C24.4598 18.6155 24.4599 18.6155 24.4599 18.6154C24.46 18.6154 24.46 18.6154 23.7418 17.9196C23.0235 17.2238 23.0235 17.2238 23.0235 17.2238C23.0234 17.2239 23.0234 17.2239 23.0233 17.224C23.0231 17.2242 23.0229 17.2244 23.0226 17.2247C23.022 17.2253 23.0211 17.2263 23.0199 17.2276C23.0174 17.2301 23.0138 17.2338 23.009 17.2387C22.9995 17.2486 22.9853 17.2632 22.9668 17.2823C22.9299 17.3205 22.8756 17.3765 22.8065 17.4478C22.6684 17.5906 22.4708 17.7947 22.2331 18.0405C21.7577 18.532 21.1215 19.1903 20.479 19.8569C19.8366 20.5232 19.1869 21.1988 18.6847 21.7247C18.4338 21.9874 18.2182 22.2143 18.0583 22.3846C17.9227 22.5289 17.7757 22.686 17.7126 22.7677L19.2949 23.9909ZM19.2582 24.8983C19.3142 24.9396 19.3335 24.9672 19.3211 24.9521C19.3142 24.9438 19.2978 24.9222 19.2768 24.887C19.2341 24.8155 19.1903 24.7181 19.164 24.6102C19.1156 24.4112 19.1275 24.2074 19.2948 23.991L17.7126 22.7676C17.0995 23.5605 17.0597 24.4211 17.2207 25.083C17.2992 25.4054 17.4254 25.6876 17.5596 25.9124C17.6798 26.1136 17.853 26.3471 18.0714 26.5081L19.2582 24.8983ZM19.3555 24.9627C19.3256 24.9452 19.2931 24.924 19.2582 24.8983L18.0714 26.5081C18.1609 26.5741 18.2523 26.6345 18.3456 26.689L19.3555 24.9627ZM18.0313 27.9275C18.5429 27.4612 19.0414 27.0068 19.5257 26.5636L18.1754 25.0882C17.6929 25.5298 17.1959 25.9828 16.684 26.4494L18.0313 27.9275ZM18.0317 27.9272L18.0319 27.9269L16.6834 26.4499L16.6831 26.4502L18.0317 27.9272ZM13.9776 27.9216C15.1239 28.9683 16.8781 28.9718 18.0287 27.9299L16.6862 26.4474C16.2999 26.7972 15.711 26.796 15.3262 26.4446L13.9776 27.9216ZM13.9875 27.9305L13.9875 27.9305L15.3162 26.4357L15.3162 26.4357L13.9875 27.9305ZM13.9698 27.9145L13.9774 27.9214L15.3263 26.4448L15.3188 26.4379L13.9698 27.9145ZM13.9703 27.9149L13.9718 27.9162L15.3169 26.4362L15.3154 26.4349L13.9703 27.9149ZM5.28125 19.3504C7.37253 21.915 10.3652 24.6358 13.97 27.9146L15.3157 26.4351C11.6704 23.1195 8.80727 20.5097 6.83124 18.0864L5.28125 19.3504ZM2 11.7235C2 14.3774 3.18986 16.7857 5.28125 19.3504L6.83124 18.0864C4.87846 15.6917 4 13.7227 4 11.7235H2ZM2 11.7235C2 7.39822 5.3881 4 9.7 4V2C4.2776 2 0 6.2996 0 11.7235H2ZM5.28125 19.3504C3.18988 16.7857 2 14.3774 2 11.7235H0C0 15.0326 1.50179 17.8803 3.73126 20.6143L5.28125 19.3504ZM13.9009 27.8518C10.3266 24.6008 7.35887 21.8982 5.28125 19.3504L3.73126 20.6143C5.9237 23.3029 9.01934 26.1153 12.5552 29.3314L13.9009 27.8518ZM13.9685 27.9133L13.9009 27.8518L12.5552 29.3314L12.6228 29.3929L13.9685 27.9133ZM13.9702 27.9148L13.9687 27.9135L12.6226 29.3927L12.6241 29.394L13.9702 27.9148ZM13.9778 27.9218L13.9717 27.9162L12.6225 29.3926L12.6286 29.3982L13.9778 27.9218ZM13.9676 27.9126L13.9676 27.9126L12.6389 29.4074L12.6389 29.4074L13.9676 27.9126ZM18.0294 27.9292C16.8789 28.9718 15.1241 28.9685 13.9776 27.9215L12.629 29.3985C14.5372 31.1409 17.4576 31.1465 19.3724 29.4112L18.0294 27.9292ZM18.0284 27.9301L18.0282 27.9303L19.3736 29.4102L19.3737 29.41L18.0284 27.9301ZM18.0309 27.9279L18.0303 27.9284L19.3718 29.4118L19.3724 29.4113L18.0309 27.9279ZM18.0308 27.928L18.0288 27.9298L19.3745 29.4093L19.3765 29.4075L18.0308 27.928ZM18.1348 27.8331L18.03 27.9287L19.3773 29.4068L19.4821 29.3112L18.1348 27.8331ZM26.7188 19.3521C24.6482 21.893 21.6934 24.5895 18.1348 27.8331L19.4821 29.3112C23.0025 26.1025 26.0844 23.2966 28.2692 20.6156L26.7188 19.3521ZM30 11.7235C30 14.3774 28.8101 16.7857 26.7188 19.3521L28.2692 20.6156C30.4982 17.8802 32 15.0326 32 11.7235H30ZM22.3 4C26.6119 4 30 7.39822 30 11.7235H32C32 6.2996 27.7224 2 22.3 2V4ZM16.6787 6.22754C18.1783 4.84166 20.2045 4 22.3 4V2C19.6767 2 17.1719 3.04846 15.3213 4.75871L16.6787 6.22754ZM9.7 4C11.7955 4 13.8217 4.84166 15.3213 6.22754L16.6787 4.75871C14.8281 3.04846 12.3233 2 9.7 2V4ZM21.1183 10.3763C20.7144 10.3763 20.3871 10.049 20.3871 9.64514H18.3871C18.3871 11.1535 19.6099 12.3763 21.1183 12.3763V10.3763ZM21.8495 9.64514C21.8495 10.049 21.5221 10.3763 21.1183 10.3763V12.3763C22.6267 12.3763 23.8495 11.1535 23.8495 9.64514H21.8495ZM21.1183 8.91397C21.5221 8.91397 21.8495 9.24134 21.8495 9.64514H23.8495C23.8495 8.13678 22.6267 6.91397 21.1183 6.91397V8.91397ZM20.3871 9.64514C20.3871 9.24135 20.7144 8.91397 21.1183 8.91397V6.91397C19.6099 6.91397 18.3871 8.13677 18.3871 9.64514H20.3871Z" fill="white" mask="url(#path-1-inside-1_73:498)"/>
</svg>
