<svg width="32" height="32" viewBox="0 0 32 32" fill="none" xmlns="http://www.w3.org/2000/svg">
<path fill-rule="evenodd" clip-rule="evenodd" d="M3.101 14.3719C3.03434 14.9052 3 15.4486 3 16C3 23.1865 8.81885 29 16 29C18.4328 29 20.7094 28.3317 22.6563 27.1687C22.5053 26.0749 22.7984 25.15 23.5183 24.3416L25.8159 22.0538C27.0674 20.8016 27.0674 18.7586 25.8159 17.5064C24.5644 16.2542 22.5283 16.2542 21.2675 17.5064L17.4476 21.3194C17.4377 21.3294 17.4271 21.3401 17.4159 21.3515C16.869 21.9048 14.8247 23.9728 12.6191 22.0538C11.3676 20.8016 11.4049 18.7021 12.6658 17.4405L18.1107 11.9892C19.3622 10.7371 19.3622 8.69401 18.1107 7.44183C17.6157 6.99933 17.1207 6.69805 16.4483 6.55683C16.3405 6.55683 16.2384 6.55631 16.1412 6.55582C14.9924 6.55002 14.5354 6.54772 13.5624 7.44183L7.30484 13.6933C7.08069 13.9193 6.62305 14.3712 6.62305 14.3712C5.55295 15.0716 4.16874 15.0699 3.101 14.3719ZM16 1C7.7144 1 1 7.71822 1 16C1 24.2916 7.71483 31 16 31C24.2856 31 31 24.2818 31 16C31 7.71822 24.2856 1 16 1ZM21.8746 11.9704C21.8746 10.3793 23.1728 9.08003 24.7698 9.08003C26.3669 9.08003 27.6651 10.3699 27.6651 11.9704C27.6651 13.5615 26.3669 14.8608 24.7698 14.8608C23.1728 14.8608 21.8746 13.5709 21.8746 11.9704Z" fill="#A5B1B8"/>
</svg>
