<svg width="21" height="19" viewBox="0 0 21 19" fill="none" xmlns="http://www.w3.org/2000/svg">
<path fill-rule="evenodd" clip-rule="evenodd" d="M11.348 0.491651C10.9611 -0.163884 10.0127 -0.163883 9.62574 0.491652L0.140371 16.56C-0.253143 17.2266 0.22742 18.0684 1.00152 18.0684H19.9723C20.7464 18.0684 21.2269 17.2266 20.8334 16.56L11.348 0.491651ZM12.1717 5.37802H8.81553L9.36503 12.0156H11.6073L12.1717 5.37802ZM8.80135 14.3873C8.80135 14.825 8.95971 15.1952 9.27644 15.4984C9.59355 15.8019 9.9992 15.9533 10.4941 15.9533C10.9791 15.9533 11.3802 15.8019 11.6973 15.4984C12.0141 15.1952 12.1724 14.825 12.1724 14.3873C12.1724 13.9396 12.0167 13.572 11.7046 13.2834C11.3928 12.9952 10.9895 12.8511 10.4941 12.8511C9.9992 12.8511 9.59355 12.9952 9.27644 13.2834C8.95971 13.572 8.80135 13.9396 8.80135 14.3873Z" fill="white"/>
</svg>
