<svg width="24" height="24" viewBox="0 0 24 24" fill="none" xmlns="http://www.w3.org/2000/svg">
<path fill-rule="evenodd" clip-rule="evenodd" d="M10.3 4.54438C10.3 5.39613 11.0228 6.08877 11.9105 6.08877C12.7987 6.08877 13.5214 5.39613 13.5214 4.54438C13.5214 3.69264 12.7987 3 11.9105 3C11.0228 3 10.3 3.69264 10.3 4.54438ZM6.43455 10.5965H17.3868C17.7632 10.5965 18.0686 10.304 18.0686 9.94268C18.0686 9.58132 17.7632 9.28883 17.3868 9.28883H6.43455C6.05818 9.28883 5.75273 9.58132 5.75273 9.94268C5.75273 10.304 6.05818 10.5965 6.43455 10.5965ZM6.43455 13.7921H17.3868C17.7632 13.7921 18.0686 13.4996 18.0686 13.1382C18.0686 12.7769 17.7632 12.4844 17.3868 12.4844H6.43455C6.05818 12.4844 5.75273 12.7769 5.75273 13.1382C5.75273 13.4996 6.05818 13.7921 6.43455 13.7921ZM6.43455 16.9877H17.3868C17.7632 16.9877 18.0686 16.6952 18.0686 16.3338C18.0686 15.9724 17.7632 15.68 17.3868 15.68H6.43455C6.05818 15.68 5.75273 15.9724 5.75273 16.3338C5.75273 16.6952 6.05818 16.9877 6.43455 16.9877ZM15.1318 4.54453H19.8886C20.9559 4.54453 21.8214 5.37404 21.8214 6.39796V18.1354C21.8214 19.1589 20.9559 19.9888 19.8886 19.9888H3.93273C2.86545 19.9888 2 19.1589 2 18.1354V6.39796C2 5.37404 2.86545 4.54453 3.93273 4.54453H8.68955C8.68955 6.24758 10.1345 7.63329 11.9105 7.63329C13.6864 7.63329 15.1318 6.24758 15.1318 4.54453Z" fill="#A5B1B8"/>
</svg>
