<svg width="68" height="24" viewBox="0 0 68 24" fill="none" xmlns="http://www.w3.org/2000/svg">
<path fill-rule="evenodd" clip-rule="evenodd" d="M18.6549 16.7498C17.7036 20.7372 14.1835 24 9.42448 24C4.09161 24 0 19.8201 0 14.5977C0 9.43625 4.02931 5.25758 9.29509 5.25758C13.9606 5.25758 17.7347 8.32792 18.6237 12.6333H13.2932C12.7229 11.4293 11.677 10.1632 9.48679 10.1632C6.9803 10.0364 5.29813 12.0941 5.29813 14.6288C5.29813 17.1934 6.9803 19.0908 9.48679 19.0908C11.677 19.0908 12.7229 17.8247 13.2932 16.7498H18.6549Z" fill="white"/>
<path fill-rule="evenodd" clip-rule="evenodd" d="M27.8678 5.85742H30.4066V9.84599H27.8678V23.4305H22.6008V9.84599H19.9985V5.85742H22.6008V0.000119561H27.8678V5.85742Z" fill="white"/>
<path fill-rule="evenodd" clip-rule="evenodd" d="M32.665 5.85742H37.6156V7.72497H37.6803C38.1248 6.8713 39.0438 5.25723 42.0894 5.25723V10.5442C39.6453 10.6064 37.9319 11.1145 37.9319 13.7724V23.4305H32.665V5.85742Z" fill="white"/>
<path fill-rule="evenodd" clip-rule="evenodd" d="M44.8572 23.4304H50.123V0H44.8572V23.4304Z" fill="white"/>
<path fill-rule="evenodd" clip-rule="evenodd" d="M64.1838 11.2126L60.4301 7.46672L56.6763 11.2126L52.9346 7.47868L60.4301 0.00012207L67.9244 7.47868L64.1838 11.2126Z" fill="#EA3434"/>
</svg>
