<svg id="Layer_1" data-name="Layer 1" xmlns="http://www.w3.org/2000/svg" viewBox="0 0 900 900"><defs><style>.cls-1{fill:#2a2a58;}.cls-2{fill:#f4cb26;}.cls-3{fill:#e53434;}</style></defs><path class="cls-1" d="M351.56,694.57h-9.29V678.08a11.3,11.3,0,0,0-.92-5.05c-.62-1.22-1.9-1.83-3.83-1.83s-3.24.57-4,1.72a8.42,8.42,0,0,0-1.14,4.7v17h-9.28V677.7q0-6.5-4.65-6.5a4.44,4.44,0,0,0-4.08,1.87,9.48,9.48,0,0,0-1.16,5v16.49h-9.28v-31h8.66v3.3h.11a7.72,7.72,0,0,1,3.53-3.33,11.92,11.92,0,0,1,5-1,9.58,9.58,0,0,1,5.26,1.44,10.52,10.52,0,0,1,3.66,4.1,12.07,12.07,0,0,1,4.18-4.08,11,11,0,0,1,5.68-1.46,10.85,10.85,0,0,1,8.16,3.14,11,11,0,0,1,3,5.46,15.16,15.16,0,0,1,.31,2.52c0,.77.05,2.12.05,4Z"/><path class="cls-1" d="M367.39,660.26h-9.28v-7.07h9.28Zm0,34.31h-9.28v-31h9.28Z"/><path class="cls-1" d="M405.47,682.78a16.75,16.75,0,0,1-5.83,9.22,17.15,17.15,0,0,1-10.44,3.58,16.65,16.65,0,0,1-11.75-4.85,16.8,16.8,0,0,1-2.69-20.05,15.89,15.89,0,0,1,5.93-6,16.08,16.08,0,0,1,8.29-2.21,17.51,17.51,0,0,1,5.65.91,16.51,16.51,0,0,1,4.91,2.64,15.94,15.94,0,0,1,5.87,9.49H396a7,7,0,0,0-6.93-4.36,6.5,6.5,0,0,0-5.19,2.3,8.33,8.33,0,0,0-2,5.59,8.66,8.66,0,0,0,.91,4,7,7,0,0,0,2.58,2.84A7.6,7.6,0,0,0,396,682.78Z"/><path class="cls-1" d="M439.29,694.57H430V677.7q0-6.5-5-6.5c-1.89,0-3.23.54-4,1.63a7.51,7.51,0,0,0-1.18,4.51v17.23h-9.28V653.19h9.28V666.4h.11a6.81,6.81,0,0,1,3.28-3,11.69,11.69,0,0,1,4.72-.91,13.13,13.13,0,0,1,4.7.88,9.36,9.36,0,0,1,3.74,2.53,10.9,10.9,0,0,1,2,3.37,13.2,13.2,0,0,1,.77,3.48c.09,1.17.14,2.67.14,4.5Z"/><path class="cls-1" d="M476.82,679.42a13.2,13.2,0,0,1-.22,2.45H453.34a6.56,6.56,0,0,0,2.47,4.29,7.59,7.59,0,0,0,4.82,1.58,6.38,6.38,0,0,0,3.15-.71,8.24,8.24,0,0,0,2.47-2.18h9.53a19.78,19.78,0,0,1-2.52,4.31,17.53,17.53,0,0,1-3.51,3.43,16,16,0,0,1-4.27,2.21,15.07,15.07,0,0,1-4.85.78,16.13,16.13,0,0,1-8.24-2.21,16.47,16.47,0,0,1-6-6,16,16,0,0,1-2.21-8.23,16.56,16.56,0,0,1,1.24-6.3,17.13,17.13,0,0,1,3.51-5.43,15.91,15.91,0,0,1,5.2-3.66,15.52,15.52,0,0,1,6.32-1.28,16.24,16.24,0,0,1,6.54,1.29,15.83,15.83,0,0,1,5.18,3.65,16.44,16.44,0,0,1,3.44,5.46A17.84,17.84,0,0,1,476.82,679.42Zm-9.26-3.8a6.2,6.2,0,0,0-2.49-3.87,7.53,7.53,0,0,0-4.58-1.45,7.41,7.41,0,0,0-4.53,1.45,6.39,6.39,0,0,0-2.51,3.87Z"/><path class="cls-1" d="M491.26,694.57H482V653.19h9.28Z"/><path class="cls-1" d="M530.56,694.57h-9.28v-3.36h-.11a6.9,6.9,0,0,1-2.26,2.51,10.23,10.23,0,0,1-3.24,1.45,14.08,14.08,0,0,1-3.56.46,15.31,15.31,0,0,1-8.19-2.2,14.55,14.55,0,0,1-5.48-6,18.33,18.33,0,0,1-1.92-8.42,17.88,17.88,0,0,1,2-8.32,15.27,15.27,0,0,1,5.51-6,15,15,0,0,1,8.11-2.22,13.66,13.66,0,0,1,3.54.47,11,11,0,0,1,3.18,1.46,8.2,8.2,0,0,1,2.34,2.43h.11v-3.3h9.28ZM521.28,679a8.5,8.5,0,0,0-.57-3.16,7.43,7.43,0,0,0-1.61-2.48,7.3,7.3,0,0,0-2.53-1.65,8.25,8.25,0,0,0-3.12-.6,7.5,7.5,0,0,0-4,1.06,7.29,7.29,0,0,0-2.69,2.92,8.62,8.62,0,0,0-.95,4,7.76,7.76,0,0,0,1,3.92A7.61,7.61,0,0,0,513.5,687a7.66,7.66,0,0,0,4-1,7.39,7.39,0,0,0,2.78-2.85A8.06,8.06,0,0,0,521.28,679Z"/><path class="cls-1" d="M569.65,694.57h-8.84v-3.36h-.11a7.9,7.9,0,0,1-3.82,3.33,14,14,0,0,1-5.46,1,15.08,15.08,0,0,1-8.15-2.21,14.93,14.93,0,0,1-5.46-6,18.26,18.26,0,0,1-1.92-8.41,18,18,0,0,1,1.91-8.3,15,15,0,0,1,5.4-6,14.72,14.72,0,0,1,8.06-2.22,12.2,12.2,0,0,1,9.11,3.71v-13h9.28Zm-8.79-15.64a8.14,8.14,0,0,0-.6-3.09,7.6,7.6,0,0,0-1.62-2.5,7.5,7.5,0,0,0-2.46-1.61,8.22,8.22,0,0,0-3.15-.58,7.75,7.75,0,0,0-5.6,2.19,7.46,7.46,0,0,0-2.26,5.59,8.47,8.47,0,0,0,1,4,7.16,7.16,0,0,0,2.74,2.9,7.77,7.77,0,0,0,4,1,8.13,8.13,0,0,0,4.07-1,7.36,7.36,0,0,0,2.85-2.85A8.18,8.18,0,0,0,560.86,678.93Z"/><path class="cls-1" d="M609,694.57h-9.28v-3.36h-.11a6.93,6.93,0,0,1-2.27,2.51,10.18,10.18,0,0,1-3.23,1.45,14.08,14.08,0,0,1-3.56.46,15.26,15.26,0,0,1-8.19-2.2,14.51,14.51,0,0,1-5.49-6,18.45,18.45,0,0,1-1.91-8.42,17.88,17.88,0,0,1,2-8.32,15.2,15.2,0,0,1,5.51-6,15,15,0,0,1,8.11-2.22,13.53,13.53,0,0,1,3.53.47,10.72,10.72,0,0,1,3.18,1.46,8.12,8.12,0,0,1,2.35,2.43h.11v-3.3H609ZM599.68,679a8.31,8.31,0,0,0-.58-3.16,7.28,7.28,0,0,0-1.61-2.48,7.36,7.36,0,0,0-2.52-1.65,8.26,8.26,0,0,0-3.13-.6,7.5,7.5,0,0,0-4,1.06,7.26,7.26,0,0,0-2.68,2.92,8.63,8.63,0,0,0-1,4,7.87,7.87,0,0,0,1,3.92A7.64,7.64,0,0,0,591.9,687a7.65,7.65,0,0,0,4-1,7.42,7.42,0,0,0,2.79-2.85A8.16,8.16,0,0,0,599.68,679Z"/><path class="cls-1" d="M626,694.57h-9.69v-9.5H626Z"/><path class="cls-1" d="M642.56,660.26h-9.28v-7.07h9.28Zm0,34.31h-9.28v-31h9.28Z"/><path class="cls-1" d="M681.24,679a16.61,16.61,0,0,1-2.18,8.44,15.67,15.67,0,0,1-6,5.91,18.17,18.17,0,0,1-17.07,0,15.67,15.67,0,0,1-6-5.91,16.61,16.61,0,0,1-2.18-8.44,17.25,17.25,0,0,1,1.25-6.56,15.75,15.75,0,0,1,3.55-5.28,16.47,16.47,0,0,1,5.34-3.45,17.36,17.36,0,0,1,6.56-1.23,17.61,17.61,0,0,1,6.6,1.23,16.08,16.08,0,0,1,5.32,3.43,15.5,15.5,0,0,1,3.52,5.24A16.94,16.94,0,0,1,681.24,679ZM672,679a8.16,8.16,0,0,0-1-3.87,7.36,7.36,0,0,0-2.67-2.89,7.21,7.21,0,0,0-7.59,0,7.46,7.46,0,0,0-2.68,2.89,8.28,8.28,0,0,0,0,7.7,7.39,7.39,0,0,0,2.68,2.89,7.21,7.21,0,0,0,7.59,0,7.29,7.29,0,0,0,2.67-2.89A8.09,8.09,0,0,0,672,679Z"/><path class="cls-1" d="M243.26,667.79a12.61,12.61,0,0,1,4.89,4.91,16.19,16.19,0,0,1,0,14.72,12.61,12.61,0,0,1-4.89,4.91,13.87,13.87,0,0,1-6.9,1.74q-5.61,0-8.55-3.54v3.14h-7.54V656.13h7.89v13.2a10.53,10.53,0,0,1,8.2-3.28A13.87,13.87,0,0,1,243.26,667.79ZM240,685.55a8.74,8.74,0,0,0,0-11,7.09,7.09,0,0,0-10,0,8.7,8.7,0,0,0,0,11,7.09,7.09,0,0,0,10,0Z"/><path class="cls-1" d="M281.43,666.45l-12.29,28.89q-1.87,4.7-4.63,6.62a11.37,11.37,0,0,1-6.65,1.93,13.75,13.75,0,0,1-4.2-.66,9.43,9.43,0,0,1-3.39-1.82l2.88-5.62a7,7,0,0,0,2.1,1.27,6.61,6.61,0,0,0,2.35.45,4.23,4.23,0,0,0,2.64-.78,6.74,6.74,0,0,0,1.82-2.61l.1-.25-11.79-27.42h8.14l7.64,18.47,7.69-18.47Z"/><path class="cls-1" d="M166.28,395.86q-15.21-4.42-24.43-11.48l10.79-23.94a73.59,73.59,0,0,0,21,10.4A78.74,78.74,0,0,0,198,374.76q13.54,0,20-4t6.47-10.7a10.23,10.23,0,0,0-3.82-8.14,29.15,29.15,0,0,0-9.82-5.2q-6-1.95-16.18-4.32a223.66,223.66,0,0,1-25.71-7.45,41.83,41.83,0,0,1-17.17-12q-7.17-8.25-7.16-22a38.26,38.26,0,0,1,6.47-21.68q6.48-9.72,19.53-15.41t31.88-5.69a105.73,105.73,0,0,1,25.71,3.14,75.76,75.76,0,0,1,22,9l-9.81,24.13q-19-10.78-38.07-10.79-13.35,0-19.72,4.32t-6.38,11.38q0,7.06,7.36,10.5T206,316.68a221.79,221.79,0,0,1,25.7,7.46,42.45,42.45,0,0,1,17.17,11.77q7.17,8,7.17,21.78a37.55,37.55,0,0,1-6.58,21.49q-6.57,9.7-19.72,15.4t-32,5.69A112.52,112.52,0,0,1,166.28,395.86Z"/><path class="cls-1" d="M275.68,292.35h30.61V397.92H275.68Z"/><path class="cls-1" d="M423.93,297.54a48.74,48.74,0,0,1,18.93,19q6.87,12.27,6.87,28.55t-6.87,28.55a48.67,48.67,0,0,1-18.93,19,53.87,53.87,0,0,1-26.79,6.77q-20.2,0-31.79-12.76V436H334.74V292.35H364v12.16q11.37-13.72,33.16-13.74A53.87,53.87,0,0,1,423.93,297.54Zm-12.76,68.88q7.56-7.95,7.56-21.29t-7.56-21.29q-7.56-7.95-19.33-7.95t-19.33,7.95Q365,331.79,365,345.13t7.55,21.29q7.56,7.95,19.33,7.95T411.17,366.42Z"/><path class="cls-1" d="M480,396.25q-12.56-3.24-20-8.14l10.21-22a64.3,64.3,0,0,0,17.07,7.36,71.39,71.39,0,0,0,19.62,2.84q19.44,0,19.43-9.61,0-4.52-5.3-6.48t-16.28-3.33a157,157,0,0,1-21.39-4.52,33.13,33.13,0,0,1-14.62-9q-6.18-6.47-6.18-18.44a28.89,28.89,0,0,1,5.78-17.76q5.79-7.76,16.88-12.07t26.2-4.32a102.55,102.55,0,0,1,22.27,2.46A62.36,62.36,0,0,1,552,300l-10.21,21.78a60.93,60.93,0,0,0-30.41-7.85q-9.83,0-14.72,2.75c-3.27,1.83-4.91,4.19-4.91,7.06q0,4.9,5.3,6.87t16.88,3.73A181.88,181.88,0,0,1,535.09,339a31.87,31.87,0,0,1,14.33,8.93q6.08,6.48,6.08,18.05a27.86,27.86,0,0,1-5.89,17.47q-5.88,7.65-17.17,11.87t-26.78,4.22A102.47,102.47,0,0,1,480,396.25Z"/><path class="cls-1" d="M520.72,551.38q7.13,9.32,7.13,23,0,19.27-15,29.65t-43.7,10.38H393.3V467.65H465q26.82,0,41.18,10.27t14.36,27.87A35.28,35.28,0,0,1,501,538.07Q513.61,542,520.72,551.38ZM427,493.22V527.8h33.75q12.57,0,19.07-4.4t6.49-13q0-8.59-6.49-12.89t-19.07-4.29Zm59.84,91.17q6.81-4.41,6.81-13.63,0-18.22-27-18.23H427v36.26h39.61Q480.06,588.79,486.88,584.39Z"/><path class="cls-1" d="M687.13,608.91a33.53,33.53,0,0,1-11.84,5.34A59.76,59.76,0,0,1,660.52,616q-20.13,0-31.13-10.27t-11-30.18V529.27H601V504.11h17.4V476.66h32.69v27.45h28.09v25.16H651.08v45.89c0,4.76,1.23,8.42,3.67,11s5.9,3.87,10.38,3.87a21,21,0,0,0,13.2-4.19Z"/><path class="cls-1" d="M716.05,612.57q-13.41-3.45-21.37-8.69l10.89-23.48a68.18,68.18,0,0,0,18.24,7.86,76.23,76.23,0,0,0,21,3q20.75,0,20.75-10.27,0-4.81-5.66-6.91t-17.4-3.57a165.9,165.9,0,0,1-22.84-4.82A35.39,35.39,0,0,1,704,556.09q-6.6-6.92-6.6-19.7a30.89,30.89,0,0,1,6.18-19q6.18-8.26,18-12.89t28-4.61a110.15,110.15,0,0,1,23.78,2.62,66.67,66.67,0,0,1,19.6,7.23L782.07,533a65.05,65.05,0,0,0-32.48-8.39q-10.49,0-15.72,2.94t-5.24,7.54q0,5.25,5.66,7.34t18,4A193,193,0,0,1,775,551.38a34,34,0,0,1,15.3,9.53q6.5,6.92,6.49,19.28a29.79,29.79,0,0,1-6.28,18.66q-6.3,8.17-18.34,12.68T743.51,616A109.35,109.35,0,0,1,716.05,612.57Z"/><path class="cls-1" d="M553.41,508.78H584V614.36H553.41Z"/><rect class="cls-2" x="334.74" y="467.65" width="30.73" height="30.73"/><rect class="cls-3" x="187.8" y="435.98" width="31.12" height="31.12"/><rect class="cls-3" x="553.46" y="488.87" width="8.6" height="8.6"/><rect class="cls-3" x="562.85" y="467.45" width="21.42" height="21.42"/><rect class="cls-2" x="300.85" y="240.93" width="9.28" height="9.28" transform="translate(610.98 491.13) rotate(180)"/><rect class="cls-2" x="276.9" y="250.2" width="23.1" height="23.1" transform="translate(576.9 523.5) rotate(180)"/><path class="cls-1" d="M259.36,567.67a9.89,9.89,0,0,0-1.79,5.78,7.37,7.37,0,0,0,3.46,6.26q3.45,2.44,9.3,2.45a24.57,24.57,0,0,0,12.76-3.46l-18-16A18.59,18.59,0,0,0,259.36,567.67Z"/><path class="cls-1" d="M270.81,542.93a24.54,24.54,0,0,0,6.73-4.71,6.86,6.86,0,0,0,2-4.6,5.17,5.17,0,0,0-1.73-4.11,7.37,7.37,0,0,0-4.95-1.49,7.94,7.94,0,0,0-5.42,1.73,5.68,5.68,0,0,0-2,4.47,7.36,7.36,0,0,0,1.13,3.88A27.8,27.8,0,0,0,270.81,542.93Z"/><path class="cls-1" d="M218.91,498.37V614.19H334.74V498.37ZM306.1,599.21l-9.42-8.35a44.74,44.74,0,0,1-13,6.38,50.68,50.68,0,0,1-15,2.21,45.62,45.62,0,0,1-17.05-3A28.31,28.31,0,0,1,239.68,588a18.79,18.79,0,0,1-4.29-12,23.28,23.28,0,0,1,4.17-13.78q4.19-5.89,13.24-10.79-8-8.1-8-16.81a18.91,18.91,0,0,1,3.46-11.21,22.18,22.18,0,0,1,9.84-7.57,37.68,37.68,0,0,1,14.72-2.68q11.57,0,18.67,5.42a17.47,17.47,0,0,1,7.09,14.61,18.56,18.56,0,0,1-3.76,11.45q-3.75,5-11.74,9.42l12.16,10.85a54.11,54.11,0,0,0,3.7-11.93l18.24,5.49a57,57,0,0,1-7.75,19l8.83,7.87Z"/></svg>