<svg width="16" height="16" viewBox="0 0 16 16" fill="none" xmlns="http://www.w3.org/2000/svg">
<path d="M15.0712 2.34312C15.4617 1.9526 15.4617 1.31943 15.0712 0.928909V0.928909C14.6806 0.538385 14.0475 0.538385 13.657 0.928909L8.0001 6.58576L2.34324 0.928908C1.95272 0.538384 1.31956 0.538385 0.929031 0.928909V0.928909C0.538507 1.31943 0.538506 1.9526 0.929031 2.34312L6.58589 7.99998L0.929031 13.6568C0.538506 14.0474 0.538506 14.6805 0.929031 15.071V15.071C1.31955 15.4616 1.95272 15.4616 2.34324 15.071L8.0001 9.41419L13.657 15.071C14.0475 15.4616 14.6806 15.4616 15.0712 15.071V15.071C15.4617 14.6805 15.4617 14.0474 15.0712 13.6568L9.41431 7.99998L15.0712 2.34312Z" fill="#A5B1B8"/>
</svg>
