<svg width="18" height="12" viewBox="0 0 18 12" fill="none" xmlns="http://www.w3.org/2000/svg">
<path fill-rule="evenodd" clip-rule="evenodd" d="M17 0C17.5523 0 18 0.447717 18 1C18 1.55229 17.5523 2 17 2L1 2C0.447716 2 0 1.55229 0 1C0 0.447716 0.447715 0 1 0H17ZM17 5C17.5523 5 18 5.44772 18 6C18 6.55229 17.5523 7 17 7L1 7C0.447716 7 0 6.55229 0 6C0 5.44772 0.447715 5 1 5L17 5ZM18 11C18 10.4477 17.5523 10 17 10L1 10C0.447715 10 0 10.4477 0 11C0 11.5523 0.447716 12 1 12L17 12C17.5523 12 18 11.5523 18 11Z" fill="#A5B1B8"/>
</svg>
