<svg width="14" height="14" viewBox="0 0 14 14" fill="none" xmlns="http://www.w3.org/2000/svg">
<path d="M2.92555 8.83963C2.92441 9.12869 2.83764 9.41093 2.67621 9.65072C2.51479 9.89051 2.28593 10.0771 2.01854 10.1869C1.75116 10.2967 1.45722 10.3249 1.17386 10.2678C0.890487 10.2107 0.630387 10.0709 0.426394 9.86612C0.2224 9.66131 0.0836588 9.40066 0.0276859 9.11707C-0.028287 8.83348 0.00101816 8.53966 0.111901 8.27271C0.222784 8.00576 0.410274 7.77764 0.6507 7.61717C0.891126 7.45669 1.17371 7.37104 1.46277 7.37104H2.92555V8.83963ZM3.66275 12.5024C3.71655 12.8486 3.89239 13.1643 4.15852 13.3922C4.42464 13.6202 4.76351 13.7455 5.11392 13.7455C5.46434 13.7455 5.8032 13.6202 6.06933 13.3922C6.33545 13.1643 6.51129 12.8486 6.5651 12.5024V8.83963C6.59764 8.63022 6.58447 8.41624 6.52649 8.2124C6.46852 8.00856 6.36712 7.81968 6.22925 7.65873C6.09138 7.49779 5.92031 7.36859 5.72779 7.28C5.53526 7.19142 5.32585 7.14555 5.11392 7.14555C4.902 7.14555 4.69258 7.19142 4.50006 7.28C4.30754 7.36859 4.13647 7.49779 3.9986 7.65873C3.86073 7.81968 3.75933 8.00856 3.70135 8.2124C3.64338 8.41624 3.63021 8.63022 3.66275 8.83963V12.5024ZM6.5651 2.95947V1.49669C6.57072 1.20287 6.48807 0.914128 6.32782 0.667791C6.16758 0.421453 5.93712 0.228856 5.66624 0.114904C5.39536 0.000952034 5.09653 -0.029113 4.80838 0.0285966C4.52023 0.0863063 4.25602 0.229136 4.04992 0.438616C3.84382 0.648097 3.70531 0.914592 3.65229 1.20364C3.59927 1.49269 3.63419 1.791 3.75253 2.05999C3.87087 2.32897 4.06719 2.55627 4.3161 2.71249C4.56501 2.86871 4.85507 2.94666 5.14875 2.93626L6.5651 2.95947ZM1.43375 3.69667C1.08749 3.75047 0.771878 3.92631 0.543912 4.19244C0.315945 4.45856 0.190649 4.79743 0.190649 5.14784C0.190649 5.49826 0.315945 5.83712 0.543912 6.10325C0.771878 6.36937 1.08749 6.54521 1.43375 6.59902H5.09651C5.30592 6.63156 5.5199 6.61839 5.72374 6.56041C5.92758 6.50244 6.11646 6.40104 6.2774 6.26317C6.43835 6.1253 6.56755 5.95423 6.65614 5.7617C6.74472 5.56918 6.79059 5.35977 6.79059 5.14784C6.79059 4.93592 6.74472 4.7265 6.65614 4.53398C6.56755 4.34146 6.43835 4.17039 6.2774 4.03252C6.11646 3.89465 5.92758 3.79325 5.72374 3.73527C5.5199 3.6773 5.30592 3.66413 5.09651 3.69667H1.43375ZM10.9767 6.59902H12.4394C12.734 6.61529 13.0267 6.54246 13.2793 6.38999C13.5319 6.23753 13.7328 6.01251 13.8556 5.74426C13.9785 5.47601 14.0177 5.17697 13.9682 4.8861C13.9187 4.59524 13.7827 4.32604 13.5779 4.11358C13.3732 3.90113 13.1092 3.75527 12.8204 3.69502C12.5315 3.63477 12.2312 3.66292 11.9586 3.7758C11.686 3.88868 11.4537 4.08106 11.292 4.32786C11.1303 4.57466 11.0467 4.86445 11.0521 5.15945L10.9767 6.59902ZM10.2395 1.46767C10.216 1.09489 10.0514 0.745058 9.77907 0.489373C9.50678 0.233689 9.1473 0.0913642 8.77378 0.0913642C8.40026 0.0913642 8.04078 0.233689 7.76849 0.489373C7.4962 0.745058 7.33157 1.09489 7.3081 1.46767V5.13043C7.29549 5.33066 7.32404 5.53136 7.392 5.72013C7.45995 5.9089 7.56587 6.08175 7.7032 6.228C7.84054 6.37426 8.00639 6.49083 8.19052 6.57051C8.37465 6.65019 8.57315 6.6913 8.77378 6.6913C8.97441 6.6913 9.17292 6.65019 9.35704 6.57051C9.54117 6.49083 9.70702 6.37426 9.84436 6.228C9.9817 6.08175 10.0876 5.9089 10.1556 5.72013C10.2235 5.53136 10.2521 5.33066 10.2395 5.13043V1.46767ZM7.36034 11.0628V12.5256C7.35919 12.8163 7.44434 13.1008 7.60501 13.3431C7.76568 13.5854 7.99464 13.7745 8.26289 13.8865C8.53114 13.9986 8.8266 14.0285 9.11186 13.9725C9.39712 13.9165 9.65934 13.7771 9.8653 13.5719C10.0713 13.3668 10.2117 13.1051 10.2689 12.8201C10.326 12.535 10.2973 12.2394 10.1863 11.9708C10.0753 11.7021 9.88706 11.4724 9.64543 11.3107C9.4038 11.1491 9.11963 11.0628 8.82893 11.0628H7.36034ZM12.4917 10.3256C12.8645 10.3022 13.2143 10.1375 13.47 9.86523C13.7257 9.59295 13.868 9.23346 13.868 8.85994C13.868 8.48643 13.7257 8.12694 13.47 7.85465C13.2143 7.58236 12.8645 7.41773 12.4917 7.39426H8.82893C8.62869 7.38165 8.428 7.41021 8.23923 7.47816C8.05046 7.54611 7.87761 7.65203 7.73135 7.78937C7.5851 7.9267 7.46853 8.09255 7.38885 8.27668C7.30917 8.46081 7.26806 8.65931 7.26806 8.85994C7.26806 9.06057 7.30917 9.25908 7.38885 9.44321C7.46853 9.62734 7.5851 9.79318 7.73135 9.93052C7.87761 10.0679 8.05046 10.1738 8.23923 10.2417C8.428 10.3097 8.62869 10.3382 8.82893 10.3256H12.4917Z" fill="#A5B1B8"/>
</svg>
