<svg width="24" height="24" viewBox="0 0 24 24" fill="none" xmlns="http://www.w3.org/2000/svg">
<path fill-rule="evenodd" clip-rule="evenodd" d="M2.32574 10.779C2.27575 11.179 2.25 11.5865 2.25 12C2.25 17.3899 6.61414 21.75 12 21.75C13.8246 21.75 15.532 21.2488 16.9921 20.3766C16.8789 19.5562 17.0987 18.8625 17.6386 18.2562L19.3618 16.5403C20.3004 15.6012 20.3004 14.0689 19.3618 13.1298C18.4231 12.1907 16.8961 12.1907 15.9505 13.1298L13.0856 15.9896C13.0781 15.9971 13.0702 16.0051 13.0618 16.0136C12.6516 16.4286 11.1184 17.9796 9.46417 16.5403C8.52554 15.6012 8.55356 14.0266 9.49919 13.0804L13.5829 8.99193C14.5215 8.05279 14.5215 6.52051 13.5829 5.58137C13.2117 5.2495 12.8404 5.02354 12.3361 4.91762C12.2552 4.91762 12.1787 4.91723 12.1058 4.91687C11.2442 4.91252 10.9014 4.91079 10.1716 5.58137L5.47851 10.27C5.3104 10.4395 4.96717 10.7784 4.96717 10.7784C4.16463 11.3037 3.12653 11.3024 2.32574 10.779ZM12 0.75C5.7858 0.75 0.75 5.78867 0.75 12C0.75 18.2187 5.78613 23.25 12 23.25C18.2142 23.25 23.25 18.2113 23.25 12C23.25 5.78867 18.2142 0.75 12 0.75ZM16.4058 8.97781C16.4058 7.78447 17.3794 6.81002 18.5772 6.81002C19.775 6.81002 20.7487 7.7774 20.7487 8.97781C20.7487 10.1712 19.775 11.1456 18.5772 11.1456C17.3794 11.1456 16.4058 10.1782 16.4058 8.97781Z" fill="#292C52"/>
</svg>