<svg width="24" height="21" viewBox="0 0 24 21" fill="none" xmlns="http://www.w3.org/2000/svg">
<mask id="path-1-inside-1_987:487" fill="white">
<path fill-rule="evenodd" clip-rule="evenodd" d="M3.33946 4.04049C4.19341 2.79747 5.62347 2 7.275 2C8.79807 2 10.2764 2.71608 11.2377 3.84838L11.2883 3.90801C9.85101 5.36213 8.73193 6.50668 8.49371 6.78336C7.47912 7.96166 9.00099 9.6555 10.1916 8.53343C10.2838 8.45615 10.5939 8.14989 10.8809 7.86295L10.9153 7.82862C11.1716 7.57212 11.4015 7.33932 11.4292 7.31122L11.432 7.30838C11.9082 6.82949 12.6762 6.82394 13.1587 7.29269L13.1617 7.2956L13.1652 7.29925C13.6312 7.78546 13.6295 8.5627 13.1583 9.04667L11.2724 10.9836C10.7962 11.4727 10.7991 12.2633 11.2794 12.7488L11.2832 12.7526C11.7638 13.2385 12.5423 13.2383 13.0227 12.753L16.0557 9.689C16.5307 9.20915 17.2997 9.20188 17.7835 9.66898L17.7956 9.6809L17.8076 9.69309C18.2743 10.177 18.2758 10.9546 17.8063 11.4397C17.8063 11.4397 14.0301 15.3374 13.8778 15.5345C13.3486 16.2189 13.7128 16.9708 13.9342 17.2169C13.6156 17.5084 13.2884 17.8068 12.9528 18.1127L3.33946 4.04049ZM2.15572 2.30771C1.12089 3.49816 0.5 5.06283 0.5 6.7926C0.5 9.11063 1.54834 11.1365 3.18594 13.1448C4.79903 15.1229 7.08425 17.2014 9.74063 19.6175L9.74066 19.6176L9.80317 19.6744L9.80464 19.6758L9.80884 19.6796L9.80887 19.6796C11.0496 20.8126 12.9485 20.8162 14.1936 19.6879L14.1937 19.6878L14.1941 19.6874L14.1961 19.6856L14.2864 19.6033C16.9314 17.1924 19.2067 15.1185 20.8143 13.1458C22.4517 11.1365 23.5 9.11062 23.5 6.7926C23.5 2.99933 20.5142 0 16.725 0C14.9689 0 13.2821 0.672461 12 1.78435C10.7179 0.672461 9.03115 0 7.275 0C5.21374 0 3.3902 0.887577 2.15572 2.30771ZM2.15572 2.30771L3.33946 4.04049C2.80827 4.8137 2.5 5.7593 2.5 6.7926C2.5 8.45565 3.23666 10.0422 4.73593 11.8808C6.24678 13.7336 8.42654 15.7187 11.1504 18.1962L11.1518 18.1975L11.1575 18.2027L11.1575 18.2027C11.6364 18.64 12.3691 18.6416 12.8498 18.2066C12.8842 18.1752 12.9186 18.1439 12.9528 18.1127"/>
</mask>
<path fill-rule="evenodd" clip-rule="evenodd" d="M3.33946 4.04049C4.19341 2.79747 5.62347 2 7.275 2C8.79807 2 10.2764 2.71608 11.2377 3.84838L11.2883 3.90801C9.85101 5.36213 8.73193 6.50668 8.49371 6.78336C7.47912 7.96166 9.00099 9.6555 10.1916 8.53343C10.2838 8.45615 10.5939 8.14989 10.8809 7.86295L10.9153 7.82862C11.1716 7.57212 11.4015 7.33932 11.4292 7.31122L11.432 7.30838C11.9082 6.82949 12.6762 6.82394 13.1587 7.29269L13.1617 7.2956L13.1652 7.29925C13.6312 7.78546 13.6295 8.5627 13.1583 9.04667L11.2724 10.9836C10.7962 11.4727 10.7991 12.2633 11.2794 12.7488L11.2832 12.7526C11.7638 13.2385 12.5423 13.2383 13.0227 12.753L16.0557 9.689C16.5307 9.20915 17.2997 9.20188 17.7835 9.66898L17.7956 9.6809L17.8076 9.69309C18.2743 10.177 18.2758 10.9546 17.8063 11.4397C17.8063 11.4397 14.0301 15.3374 13.8778 15.5345C13.3486 16.2189 13.7128 16.9708 13.9342 17.2169C13.6156 17.5084 13.2884 17.8068 12.9528 18.1127L3.33946 4.04049ZM2.15572 2.30771C1.12089 3.49816 0.5 5.06283 0.5 6.7926C0.5 9.11063 1.54834 11.1365 3.18594 13.1448C4.79903 15.1229 7.08425 17.2014 9.74063 19.6175L9.74066 19.6176L9.80317 19.6744L9.80464 19.6758L9.80884 19.6796L9.80887 19.6796C11.0496 20.8126 12.9485 20.8162 14.1936 19.6879L14.1937 19.6878L14.1941 19.6874L14.1961 19.6856L14.2864 19.6033C16.9314 17.1924 19.2067 15.1185 20.8143 13.1458C22.4517 11.1365 23.5 9.11062 23.5 6.7926C23.5 2.99933 20.5142 0 16.725 0C14.9689 0 13.2821 0.672461 12 1.78435C10.7179 0.672461 9.03115 0 7.275 0C5.21374 0 3.3902 0.887577 2.15572 2.30771ZM2.15572 2.30771L3.33946 4.04049C2.80827 4.8137 2.5 5.7593 2.5 6.7926C2.5 8.45565 3.23666 10.0422 4.73593 11.8808C6.24678 13.7336 8.42654 15.7187 11.1504 18.1962L11.1518 18.1975L11.1575 18.2027L11.1575 18.2027C11.6364 18.64 12.3691 18.6416 12.8498 18.2066C12.8842 18.1752 12.9186 18.1439 12.9528 18.1127" fill="#A5B1B8"/>
<path d="M13.3657 17.8306L2.56858 2.02566L1.74286 2.58975L12.54 18.3947L13.3657 17.8306ZM11.2377 3.84838L10.4754 4.49558L10.4754 4.49558L11.2377 3.84838ZM11.2883 3.90801L11.9995 4.61098L12.6436 3.95931L12.0506 3.26081L11.2883 3.90801ZM8.49371 6.78336L9.2515 7.43585L9.25151 7.43584L8.49371 6.78336ZM10.1916 8.53343L9.54907 7.76718L9.52687 7.7858L9.50578 7.80568L10.1916 8.53343ZM10.8809 7.86295L11.5879 8.5702L11.5881 8.57001L10.8809 7.86295ZM10.9153 7.82862L11.6224 8.53569L11.6226 8.53552L10.9153 7.82862ZM11.4292 7.31122L10.7176 6.60867L10.7175 6.60875L11.4292 7.31122ZM11.432 7.30838L10.7229 6.60331L10.7204 6.60584L11.432 7.30838ZM13.1587 7.29269L13.8569 6.57682L13.8555 6.57549L13.1587 7.29269ZM13.1617 7.2956L13.8802 6.60016L13.8702 6.58979L13.8599 6.57973L13.1617 7.2956ZM13.1652 7.29925L13.8872 6.60731L13.8838 6.60381L13.1652 7.29925ZM13.1583 9.04667L12.4418 8.34908L12.4418 8.34908L13.1583 9.04667ZM11.2724 10.9836L10.5559 10.286L11.2724 10.9836ZM11.2794 12.7488L11.9903 12.0455L11.9903 12.0455L11.2794 12.7488ZM11.2832 12.7526L10.5723 13.4559L10.5723 13.4559L11.2832 12.7526ZM13.0227 12.753L13.7334 13.4565L13.7334 13.4565L13.0227 12.753ZM16.0557 9.689L15.345 8.9855L16.0557 9.689ZM17.7835 9.66898L18.4846 8.95592L18.4781 8.94958L17.7835 9.66898ZM17.7956 9.6809L18.509 8.98013L18.5029 8.97395L18.4967 8.96788L17.7956 9.6809ZM17.8076 9.69309L18.5274 8.99887L18.521 8.99232L17.8076 9.69309ZM17.8063 11.4397L18.5245 12.1355L18.5249 12.1351L17.8063 11.4397ZM13.8778 15.5345L14.6689 16.1462L14.669 16.1461L13.8778 15.5345ZM13.9342 17.2169L14.6093 17.9546L15.3409 17.2852L14.6776 16.548L13.9342 17.2169ZM3.18594 13.1448L3.96094 12.5128L3.18594 13.1448ZM9.74063 19.6175L9.06778 20.3573L9.06796 20.3575L9.74063 19.6175ZM9.74066 19.6176L10.4135 18.8778L10.4133 18.8776L9.74066 19.6176ZM9.80317 19.6744L10.4768 18.9353L10.476 18.9346L9.80317 19.6744ZM9.80464 19.6758L10.4791 18.9375L10.4782 18.9366L9.80464 19.6758ZM9.80884 19.6796L9.13431 20.418L9.14448 20.427L9.80884 19.6796ZM9.80887 19.6796L10.4832 18.9411L10.4732 18.9322L9.80887 19.6796ZM14.1936 19.6879L14.8651 20.4289L14.8686 20.4257L14.1936 19.6879ZM14.1937 19.6878L13.5217 18.9472L13.5186 18.95L14.1937 19.6878ZM14.1941 19.6874L14.8662 20.4279L14.8666 20.4275L14.1941 19.6874ZM14.1961 19.6856L14.8686 20.4257L14.8698 20.4246L14.1961 19.6856ZM14.2864 19.6033L13.6128 18.8642L13.6128 18.8642L14.2864 19.6033ZM20.8143 13.1458L21.5895 13.7775L20.8143 13.1458ZM12 1.78435L11.3448 2.53984L12 3.10801L12.6552 2.53984L12 1.78435ZM4.73593 11.8808L5.51093 11.2489L4.73593 11.8808ZM11.1504 18.1962L10.4775 18.936L10.4775 18.936L11.1504 18.1962ZM11.1518 18.1975L11.8263 17.4593L11.8246 17.4577L11.1518 18.1975ZM11.1575 18.2027L10.4829 18.9411L10.4931 18.9501L11.1575 18.2027ZM11.1575 18.2027L11.8318 17.4642L11.8219 17.4553L11.1575 18.2027ZM12.8498 18.2066L13.5207 18.9481L13.5235 18.9456L12.8498 18.2066ZM7.275 1C5.29091 1 3.55392 1.9623 2.51523 3.47424L4.1637 4.60674C4.8329 3.63264 5.95603 3 7.275 3V1ZM12 3.20119C10.8554 1.85297 9.10185 1 7.275 1V3C8.4943 3 9.69735 3.57918 10.4754 4.49558L12 3.20119ZM12.0506 3.26081L12 3.20118L10.4754 4.49558L10.526 4.55521L12.0506 3.26081ZM9.25151 7.43584C9.46056 7.19305 10.5434 6.08414 11.9995 4.61098L10.5771 3.20503C9.15861 4.64012 8.00331 5.82031 7.7359 6.13087L9.25151 7.43584ZM9.50578 7.80568C9.44208 7.86571 9.39747 7.88724 9.37782 7.89476C9.35905 7.90194 9.35028 7.90143 9.34719 7.90122C9.33956 7.90072 9.298 7.89352 9.24618 7.8381C9.19417 7.78246 9.1654 7.71203 9.16171 7.65121C9.15899 7.60631 9.16631 7.53478 9.2515 7.43585L7.73592 6.13086C6.84973 7.16005 7.08422 8.45417 7.78523 9.20397C8.13588 9.57904 8.63462 9.85855 9.21551 9.89688C9.81606 9.93651 10.3999 9.71126 10.8775 9.26117L9.50578 7.80568ZM10.174 7.1557C10.0315 7.29814 9.88522 7.4434 9.76423 7.56164C9.7036 7.6209 9.65134 7.67138 9.61013 7.71042C9.56346 7.75464 9.54643 7.7694 9.54907 7.76718L10.8342 9.29967C10.9695 9.18619 11.3222 8.8358 11.5879 8.5702L10.174 7.1557ZM10.2081 7.12156L10.1738 7.15588L11.5881 8.57001L11.6224 8.53569L10.2081 7.12156ZM10.7175 6.60875C10.6903 6.63628 10.4621 6.86739 10.2079 7.12173L11.6226 8.53552C11.8811 8.27686 12.1126 8.04235 12.1409 8.01368L10.7175 6.60875ZM10.7204 6.60584L10.7176 6.60867L12.1409 8.01376L12.1437 8.01093L10.7204 6.60584ZM13.8555 6.57549C12.9804 5.72514 11.5854 5.73581 10.7229 6.60331L12.1411 8.01345C12.2309 7.92318 12.3721 7.92274 12.4618 8.00989L13.8555 6.57549ZM13.8599 6.57973L13.8569 6.57682L12.4604 8.00856L12.4634 8.01147L13.8599 6.57973ZM13.8838 6.60381L13.8802 6.60016L12.4431 7.99104L12.4466 7.99469L13.8838 6.60381ZM13.8748 9.74427C14.7225 8.87355 14.7253 7.48184 13.8872 6.60732L12.4432 7.99119C12.5371 8.08908 12.5364 8.25185 12.4418 8.34908L13.8748 9.74427ZM11.9889 11.6812L13.8748 9.74427L12.4418 8.34908L10.5559 10.286L11.9889 11.6812ZM11.9903 12.0455C11.8934 11.9476 11.8927 11.78 11.9889 11.6812L10.5559 10.286C9.69968 11.1654 9.70475 12.5789 10.5685 13.452L11.9903 12.0455ZM11.9942 12.0494L11.9903 12.0455L10.5684 13.452L10.5723 13.4559L11.9942 12.0494ZM12.312 12.0495C12.2229 12.1395 12.0834 12.1396 11.9941 12.0494L10.5723 13.4559C11.4443 14.3374 12.8617 14.3372 13.7334 13.4565L12.312 12.0495ZM15.345 8.9855L12.312 12.0495L13.7334 13.4565L16.7664 10.3925L15.345 8.9855ZM18.4781 8.94958C17.601 8.10274 16.2056 8.11608 15.345 8.9855L16.7664 10.3925C16.8558 10.3022 16.9984 10.301 17.0889 10.3884L18.4781 8.94958ZM18.4967 8.96788L18.4846 8.95595L17.0823 10.382L17.0945 10.3939L18.4967 8.96788ZM18.521 8.99232L18.509 8.98013L17.0822 10.3817L17.0942 10.3939L18.521 8.99232ZM18.5249 12.1351C19.3703 11.2615 19.3669 9.86938 18.5274 8.9989L17.0878 10.3873C17.1816 10.4846 17.1812 10.6476 17.0877 10.7443L18.5249 12.1351ZM14.669 16.1461C14.6503 16.1703 14.6798 16.135 14.8192 15.9866C14.9342 15.8642 15.092 15.6981 15.2791 15.5022C15.6529 15.1108 16.1379 14.6064 16.6191 14.1072C17.1002 13.6082 17.5765 13.1153 17.9327 12.747C18.1108 12.5629 18.2588 12.41 18.3622 12.3031C18.414 12.2497 18.4546 12.2077 18.4822 12.1792C18.496 12.1649 18.5066 12.154 18.5138 12.1466C18.5173 12.1429 18.52 12.1402 18.5218 12.1383C18.5227 12.1374 18.5234 12.1367 18.5239 12.1362C18.5241 12.136 18.5243 12.1358 18.5244 12.1357C18.5244 12.1356 18.5245 12.1356 18.5245 12.1355C18.5245 12.1355 18.5245 12.1355 17.8063 11.4397C17.0881 10.7439 17.0881 10.7439 17.088 10.7439C17.088 10.7439 17.088 10.744 17.0879 10.744C17.0878 10.7442 17.0876 10.7443 17.0874 10.7446C17.0869 10.7451 17.0862 10.7458 17.0853 10.7467C17.0835 10.7486 17.0808 10.7514 17.0772 10.7551C17.07 10.7625 17.0594 10.7735 17.0455 10.7878C17.0178 10.8164 16.9771 10.8585 16.9253 10.912C16.8216 11.019 16.6734 11.1722 16.4951 11.3566C16.1385 11.7253 15.6613 12.2191 15.1792 12.7192C14.6974 13.219 14.2098 13.726 13.8327 14.1209C13.6444 14.3181 13.4822 14.4888 13.3615 14.6173C13.2652 14.7198 13.1434 14.8494 13.0867 14.9228L14.669 16.1461ZM14.6776 16.548C14.6923 16.5643 14.6773 16.5505 14.6547 16.5047C14.6342 16.463 14.6178 16.4157 14.6099 16.3698C14.6023 16.3256 14.6036 16.2906 14.6097 16.2624C14.6151 16.2377 14.6278 16.1993 14.6689 16.1462L13.0867 14.9228C12.6239 15.5213 12.5468 16.1757 12.6391 16.7103C12.7251 17.2079 12.9594 17.6285 13.1909 17.8858L14.6776 16.548ZM13.6265 18.8517C13.9621 18.5458 14.2899 18.2469 14.6093 17.9546L13.2591 16.4791C12.9413 16.77 12.6148 17.0677 12.2792 17.3736L13.6265 18.8517ZM2.51375 4.60458L12.1271 18.6768L13.7786 17.5486L4.16518 3.4764L2.51375 4.60458ZM1.401 1.65165C0.21001 3.02176 -0.5 4.81868 -0.5 6.7926H1.5C1.5 5.30698 2.03178 3.97456 2.91043 2.96376L1.401 1.65165ZM-0.5 6.7926C-0.5 9.43828 0.704329 11.6839 2.41095 13.7767L3.96094 12.5128C2.39235 10.5892 1.5 8.78299 1.5 6.7926H-0.5ZM2.41095 13.7767C4.0814 15.8252 6.43043 17.9585 9.06778 20.3573L10.4135 18.8778C7.73807 16.4443 5.51666 14.4206 3.96094 12.5128L2.41095 13.7767ZM9.06796 20.3575L9.06799 20.3575L10.4133 18.8776L10.4133 18.8776L9.06796 20.3575ZM9.06783 20.3574L9.13034 20.4142L10.476 18.9346L10.4135 18.8778L9.06783 20.3574ZM9.12959 20.4135L9.13105 20.4149L10.4782 18.9366L10.4768 18.9353L9.12959 20.4135ZM9.13017 20.4141L9.13437 20.4179L10.4833 18.9413L10.4791 18.9375L9.13017 20.4141ZM9.14448 20.427L9.1445 20.427L10.4732 18.9322L10.4732 18.9322L9.14448 20.427ZM9.13457 20.4181C10.7562 21.8988 13.2379 21.9035 14.8651 20.4289L13.5221 18.9469C12.6592 19.7289 11.3431 19.7264 10.4832 18.9412L9.13457 20.4181ZM14.8686 20.4257L14.8688 20.4255L13.5186 18.95L13.5185 18.9502L14.8686 20.4257ZM14.8657 20.4283L14.8662 20.4279L13.5221 18.9469L13.5217 18.9473L14.8657 20.4283ZM14.8666 20.4275L14.8686 20.4257L13.5237 18.9455L13.5216 18.9473L14.8666 20.4275ZM14.8698 20.4246L14.9601 20.3423L13.6128 18.8642L13.5225 18.9465L14.8698 20.4246ZM14.9601 20.3423C17.5861 17.9487 19.9249 15.8202 21.5895 13.7775L20.0391 12.5141C18.4886 14.4168 16.2767 16.4362 13.6128 18.8642L14.9601 20.3423ZM21.5895 13.7775C23.2957 11.6837 24.5 9.43825 24.5 6.7926H22.5C22.5 8.78299 21.6076 10.5892 20.0391 12.5141L21.5895 13.7775ZM24.5 6.7926C24.5 2.45004 21.0694 -1 16.725 -1V1C19.9589 1 22.5 3.54861 22.5 6.7926H24.5ZM16.725 -1C14.7159 -1 12.7993 -0.232499 11.3448 1.02887L12.6552 2.53984C13.7649 1.57742 15.2218 1 16.725 1V-1ZM12.6552 1.02887C11.2007 -0.232499 9.28411 -1 7.275 -1V1C8.77819 1 10.2351 1.57742 11.3448 2.53984L12.6552 1.02887ZM7.275 -1C4.91882 -1 2.82182 0.0171634 1.401 1.65165L2.91043 2.96376C3.95857 1.75799 5.50866 1 7.275 1V-1ZM1.33 2.87179L2.51375 4.60458L4.16518 3.4764L2.98143 1.74362L1.33 2.87179ZM2.51523 3.47424C1.86955 4.4141 1.5 5.55714 1.5 6.7926H3.5C3.5 5.96146 3.747 5.21329 4.1637 4.60674L2.51523 3.47424ZM1.5 6.7926C1.5 8.78295 2.39231 10.5891 3.96094 12.5128L5.51093 11.2489C4.08101 9.49532 3.5 8.12836 3.5 6.7926H1.5ZM3.96094 12.5128C5.52942 14.4362 7.77395 16.4769 10.4775 18.936L11.8232 17.4565C9.07912 14.9605 6.96414 13.031 5.51093 11.2489L3.96094 12.5128ZM10.4775 18.936L10.479 18.9374L11.8246 17.4577L11.8232 17.4564L10.4775 18.936ZM10.4773 18.9358L10.483 18.941L11.832 17.4644L11.8263 17.4593L10.4773 18.9358ZM10.4931 18.9501L10.4931 18.9501L11.8219 17.4553L11.8218 17.4553L10.4931 18.9501ZM10.4832 18.9412C11.3427 19.726 12.6578 19.7289 13.5207 18.9481L12.1789 17.465C12.0803 17.5543 11.93 17.5539 11.8318 17.4642L10.4832 18.9412ZM13.5235 18.9456C13.5579 18.9143 13.5922 18.8829 13.6265 18.8517L12.2792 17.3736C12.2449 17.4049 12.2106 17.4362 12.1762 17.4675L13.5235 18.9456Z" fill="#A5B1B8" mask="url(#path-1-inside-1_987:487)"/>
</svg>
