<svg width="24" height="24" viewBox="0 0 24 24" fill="none" xmlns="http://www.w3.org/2000/svg">
<path d="M20.2812 8.25H3.71875C3.45988 8.25 3.25 8.04012 3.25 7.78125V6.375C3.25 5.33945 4.08945 4.5 5.125 4.5H7V2.46875C7 2.20988 7.20988 2 7.46875 2H9.03125C9.29012 2 9.5 2.20988 9.5 2.46875V4.5H14.5V2.46875C14.5 2.20988 14.7099 2 14.9688 2H16.5312C16.7901 2 17 2.20988 17 2.46875V4.5H18.875C19.9105 4.5 20.75 5.33945 20.75 6.375V7.78125C20.75 8.04012 20.5401 8.25 20.2812 8.25ZM3.71875 9.5H20.2812C20.5401 9.5 20.75 9.70988 20.75 9.96875V20.125C20.75 21.1605 19.9105 22 18.875 22H5.125C4.08945 22 3.25 21.1605 3.25 20.125V9.96875C3.25 9.70988 3.45988 9.5 3.71875 9.5ZM16.7381 13.2479L15.6378 12.1386C15.4555 11.9548 15.1587 11.9536 14.9749 12.136L10.8328 16.2447L9.03672 14.4341C8.85441 14.2503 8.55758 14.2491 8.37379 14.4314L7.26453 15.5318C7.08074 15.7141 7.07953 16.0109 7.26188 16.1947L10.4885 19.4474C10.6708 19.6312 10.9676 19.6324 11.1514 19.4501L16.7355 13.9108C16.9193 13.7285 16.9205 13.4317 16.7381 13.2479Z" fill="#A5B1B8"/>
</svg>
